<svg width="20" height="18" viewbox="0 0 20 18" fill="none" xmlns="http://www.w3.org/2000/svg">
<path d="M19.9617 2.80754C19.2242 3.1317 18.4367 3.35254 17.6075 3.45337C18.4525 2.9442 19.1025 2.1417 19.41 1.1842C18.6175 1.6467 17.7392 1.98337 16.8042 2.17087C16.0575 1.3717 14.9933 0.871704 13.8117 0.871704C11.5475 0.871704 9.71167 2.70754 9.71167 4.9692C9.71167 5.2942 9.74917 5.6067 9.8175 5.90587C6.40917 5.74504 3.38833 4.10837 1.36667 1.6342C1.01083 2.23587 0.811667 2.93504 0.811667 3.6967C0.811667 5.1217 1.53667 6.3742 2.635 7.11004C1.9625 7.08837 1.33 6.90337 0.778333 6.5967V6.64754C0.778333 8.63504 2.18917 10.2925 4.06667 10.67C3.7225 10.7625 3.35917 10.8125 2.98667 10.8125C2.725 10.8125 2.47417 10.7875 2.22333 10.7409C2.74917 12.3684 4.26083 13.555 6.06 13.5884C4.66 14.6875 2.88583 15.3425 0.975 15.3425C0.65 15.3425 0.325833 15.3234 0 15.2867C1.82417 16.4484 3.97333 17.1275 6.2975 17.1275C13.8425 17.1275 17.9633 10.8809 17.9633 5.47254C17.9633 5.29837 17.9633 5.12254 17.9508 4.94754C18.7517 4.37337 19.4508 3.64754 20.0008 2.8242L19.9617 2.80754Z" fill="#8C899A"/>
</svg>
